# xmcd
#
# Track frame offsets: 
#        150
#        5718
#        22928
#        37463
#        59274
#        78100
#        100899
#        116503
#        136579
#        150463
#        168597
#        184727
#        196758
#
# Disc length: 2785 seconds
#
# Revision: 1
# Processed by: cddbd v1.5.2PL0 Copyright (c) Steve Scherf et al.
# Submitted via: ExactAudioCopy v1.0b3
#
DISCID=9d0adf0d
DTITLE=Deacon Blue - Raintown (2v2)
DYEAR=2006
DGENRE=Pop
TTITLE0=Born In A Storm (Live At Glasgow Art School '86)
TTITLE1=Raintown (Live At The Marquee '86)
TTITLE2=Ragman (Demo Version)
TTITLE3=He Looks Like Spencer Tracy Now (Live At The Marquee '86)
TTITLE4=Loaded (Demo Version)
TTITLE5=When Will You (Make My Phone Ring) (Air Studio Vocal Mix)
TTITLE6=Chocolate Girl (Live At The Marquee '86)
TTITLE7=Dignity (Live At The Marquee '86)
TTITLE8=The Very Thing (BBC Session)
TTITLE9=Love's Great Fears (Live At The Marquee '86)
TTITLE10=Town To Be Blamed (Live At Glasgow Art School '86)
TTITLE11=Riches
TTITLE12=Kings Of The Western World
EXTD=
EXTT0=
EXTT1=
EXTT2=
EXTT3=
EXTT4=
EXTT5=
EXTT6=
EXTT7=
EXTT8=
EXTT9=
EXTT10=
EXTT11=
EXTT12=
PLAYORDER=
